<svg height='40px' width='40px'  fill="#000000" xmlns="http://www.w3.org/2000/svg" xmlns:xlink="http://www.w3.org/1999/xlink" version="1.1" x="0px" y="0px" viewBox="0 0 100 100" enable-background="new 0 0 100 100" xml:space="preserve"><path d="M78.635,46.941c0.375-4.259-3.596-5.502-5.17-5.502c-6.107-0.002-12.219,0-18.326-0.005  c0.879-1.914,1.951-6.987,0.602-13.977c-0.533-2.764-2.164-4.602-4.242-4.565c-1.672,0.029-3.271,1.319-3.439,2.929  c-0.183,1.77-0.618,4.288-1.029,6.012c-1.316,5.508-8.353,12.779-12.802,15.316v26.906c3.019,1.705,6.292,2.303,9.788,2.236  c5.523-0.106,21.299-0.014,24.158-0.032c2.023-0.014,4.041-0.979,5.012-3.422c1.326-3.334-2.092-5.001-2.092-5.001  s3.742,0.185,4.596-3.172c0.877-3.444-2.564-4.808-2.564-4.808c2.328-0.254,3.818-0.86,4.381-2.958  c0.664-2.472-0.926-4.327-3.443-5.401C74.445,51.461,78.289,50.84,78.635,46.941z M30.354,42.874h-7.116  c-1.048,0-1.897,0.85-1.897,1.897V75.21c0,1.049,0.85,1.897,1.897,1.897h7.116c1.048,0,1.897-0.849,1.897-1.897V44.771  C32.251,43.724,31.403,42.874,30.354,42.874z"></path></svg>
